<?xml version="1.0" encoding="UTF-8" standalone="no"?>
<svg
   xmlns:dc="http://purl.org/dc/elements/1.1/"
   xmlns:cc="http://creativecommons.org/ns#"
   xmlns:rdf="http://www.w3.org/1999/02/22-rdf-syntax-ns#"
   xmlns:svg="http://www.w3.org/2000/svg"
   xmlns="http://www.w3.org/2000/svg"
   viewBox="0 0 467.84 295.67999"
   height="295.67999"
   width="467.84"
   xml:space="preserve"
   id="svg2"
   version="1.1"><metadata
     id="metadata8"><rdf:RDF><cc:Work
         rdf:about=""><dc:format>image/svg+xml</dc:format><dc:type
           rdf:resource="http://purl.org/dc/dcmitype/StillImage" /></cc:Work></rdf:RDF></metadata><defs
     id="defs6"><clipPath
       id="clipPath18"
       clipPathUnits="userSpaceOnUse"><path
         id="path16"
         d="M 0,221.76 H 350.88 V 0 H 0 Z" /></clipPath></defs><g
     transform="matrix(1.3333333,0,0,-1.3333333,0,295.68)"
     id="g10"><g
       id="g12"><g
         clip-path="url(#clipPath18)"
         id="g14"><g
           transform="translate(203.226,158.1905)"
           id="g20"><path
             id="path22"
             style="fill:#03c5fe;fill-opacity:1;fill-rule:nonzero;stroke:none"
             d="M 0,0 C 5.181,6.688 9.239,13.984 11.698,22.125 6.186,15.616 3.581,7.555 0,0 m -30.252,-13.102 c 0.149,-0.143 0.298,-0.286 0.446,-0.429 0.327,0.508 0.638,1.026 0.982,1.523 2.147,3.105 4.575,6.055 6.398,9.339 3.774,6.798 7.254,13.76 10.794,20.686 0.912,1.785 1.597,3.687 2.386,5.536 -0.547,-0.228 -0.863,-0.578 -1.145,-0.955 -3.48,-4.656 -6.119,-9.808 -8.769,-14.952 -2.374,-4.609 -4.688,-9.25 -7.107,-13.835 -1.24,-2.351 -2.651,-4.612 -3.985,-6.913 m 134.606,0.91 c 0.151,-2.769 0.25,-5.242 0.459,-7.705 0.034,-0.398 0.482,-0.877 0.865,-1.112 3.687,-2.261 3.833,-5.735 0.327,-8.26 -0.236,-0.17 -0.578,-0.447 -0.57,-0.664 0.082,-2.253 0.225,-4.504 0.368,-7.041 1.219,0.311 2.242,0.461 3.179,0.83 8.239,3.24 16.463,6.517 24.69,9.786 2.418,0.961 4.832,1.931 7.434,2.972 -0.345,0.175 -0.473,0.263 -0.613,0.308 -11.167,3.566 -22.331,7.14 -33.509,10.669 -0.76,0.24 -1.627,0.144 -2.63,0.217 M -36.739,-24.144 c -2.142,-4.369 -4.346,-8.697 -6.4,-13.094 -3.642,-7.793 -6.414,-15.894 -8.295,-24.295 -0.941,-4.203 -1.705,-8.439 -1.687,-12.759 0.006,-1.531 0.305,-3.082 0.652,-4.583 0.284,-1.229 1.217,-1.495 2.304,-0.813 0.334,0.21 0.616,0.506 0.909,0.776 2.725,2.516 4.351,5.791 6.056,8.982 3.005,5.626 5.273,11.539 6.894,17.729 1.801,6.874 2.85,13.816 2.452,20.912 -0.094,1.67 -0.838,3.325 -1.427,4.935 -0.274,0.75 -0.892,1.375 -1.458,2.21 m -11.432,0.299 c 3.281,0.262 6.295,1.316 9.06,3.085 0.288,0.184 0.566,0.45 0.735,0.743 3.158,5.46 6.412,10.869 9.411,16.415 2.79,5.161 5.274,10.486 7.951,15.709 2.443,4.764 4.952,9.498 8.296,13.716 0.642,0.81 1.425,1.511 2.168,2.237 0.817,0.797 1.743,1.307 2.917,0.802 1.234,-0.532 2.182,-1.501 2.094,-2.806 -0.119,-1.762 -0.345,-3.633 -1.059,-5.216 -2.694,-5.966 -5.491,-11.893 -8.472,-17.72 -2.106,-4.117 -4.442,-8.132 -6.913,-12.042 -3.009,-4.764 -6.932,-8.761 -11.269,-12.348 -0.183,-0.152 -0.361,-0.309 -0.54,-0.462 0.618,-0.853 1.172,-1.719 1.838,-2.486 0.253,-0.291 0.751,-0.421 1.162,-0.513 3.606,-0.812 6.624,0.748 9.562,2.479 4.478,2.639 8.306,6.095 11.888,9.82 0.656,0.682 0.986,1.705 1.381,2.607 2.512,5.729 4.975,11.478 7.504,17.199 1.469,3.324 2.985,6.628 4.564,9.901 1.475,3.058 3.122,6.024 5.486,8.513 0.464,0.49 0.982,0.946 1.535,1.332 1.813,1.267 4.106,0.151 4.312,-2.069 0.225,-2.426 -0.534,-4.68 -1.356,-6.877 C 10.142,7.631 4.218,-1.764 -2.743,-10.545 c -0.174,-0.218 -0.358,-0.436 -0.569,-0.617 -3.969,-3.413 -4.713,-8.142 -5.24,-12.94 -0.126,-1.141 -0.128,-2.32 10e-4,-3.461 0.282,-2.49 2.011,-3.264 4.029,-1.76 1.403,1.046 2.719,2.233 3.95,3.479 3.504,3.546 6.179,7.718 8.687,11.985 0.856,1.454 1.302,3.144 2.003,4.696 0.605,1.339 1.235,2.677 1.984,3.938 0.694,1.167 1.623,1.436 2.622,0.985 0.877,-0.397 1.238,-1.468 0.835,-2.702 -0.27,-0.828 -0.584,-1.649 -0.969,-2.428 -0.777,-1.568 -1.738,-3.053 -2.403,-4.664 -1.279,-3.102 -1.55,-6.33 -0.542,-9.57 0.395,-1.27 1.353,-1.599 2.42,-0.654 1.809,1.604 3.413,3.439 5.11,5.17 2.092,2.135 2.437,4.969 3.231,7.669 0.937,3.183 2.22,6.268 3.418,9.37 0.251,0.648 0.747,1.221 1.205,1.765 0.656,0.778 1.5,1.224 2.535,0.841 1.137,-0.42 1.639,-1.419 1.415,-2.484 -0.406,-1.927 -0.886,-3.875 -1.648,-5.682 -1.233,-2.93 -2.646,-5.79 -4.122,-8.608 -1.026,-1.958 -0.662,-3.972 -0.534,-5.974 0.032,-0.514 0.593,-1.225 1.073,-1.399 0.313,-0.113 1.063,0.481 1.366,0.929 0.959,1.416 1.816,2.902 2.683,4.378 1.956,3.332 3.759,6.762 5.876,9.987 2.119,3.226 4.733,6.086 8.365,7.677 2.713,1.188 5.529,1.943 8.268,-0.067 1.62,-1.189 2.354,-2.914 2.899,-5.001 6.556,10.284 12.81,20.525 19.313,30.605 0.184,-0.111 0.368,-0.221 0.552,-0.331 -2.336,-4.265 -4.72,-8.504 -6.998,-12.8 -4.154,-7.832 -8.262,-15.689 -12.333,-23.564 -0.34,-0.657 -0.357,-1.528 -0.362,-2.301 -0.013,-1.911 -0.096,-3.843 0.147,-5.728 0.483,-3.766 3.13,-5.897 6.922,-6.161 3.982,-0.277 7.885,0.172 11.797,0.769 5.74,0.877 11.515,1.301 17.323,1.199 0.792,-0.014 1.233,0.189 1.701,0.92 1.487,2.322 3.903,3.023 6.48,3.321 0.238,0.027 0.477,0.038 0.878,0.069 -0.101,1.985 -0.167,3.966 -0.308,5.941 -0.301,4.205 1.59,6.065 5.885,5.679 0.827,-0.074 1.659,-0.266 2.452,-0.518 12.095,-3.847 24.18,-7.723 36.279,-11.558 1.277,-0.405 2.314,-1.013 2.961,-2.205 v -1.68 c -0.699,-1.186 -1.773,-1.848 -3.032,-2.345 -11.656,-4.603 -23.302,-9.232 -34.949,-13.857 -1.846,-0.733 -3.732,-0.85 -5.641,-0.343 -1.652,0.439 -2.423,1.351 -2.556,3.051 -0.174,2.223 -0.28,4.45 -0.415,6.666 -1.07,0.123 -2.081,0.128 -3.027,0.377 -1.068,0.281 -2.308,0.537 -3.062,1.243 -1.282,1.2 -2.697,1.166 -4.202,1.141 -4.717,-0.078 -9.439,-0.042 -14.148,-0.279 -2.858,-0.143 -5.686,-0.817 -8.544,-1.058 -3.664,-0.31 -7.338,-0.373 -10.795,1.255 -3.015,1.419 -4.59,3.942 -5.391,7.051 -0.134,0.52 -0.217,1.054 -0.369,1.805 -4.642,-7.718 -9.536,-15.02 -14.3,-22.409 -0.154,0.1 -0.308,0.2 -0.462,0.301 1.741,3.381 3.516,6.747 5.216,10.149 3.159,6.32 6.275,12.661 9.406,18.994 0.089,0.179 0.232,0.371 0.222,0.55 -0.11,2.099 -0.049,4.232 -0.429,6.283 -0.378,2.036 -1.659,2.625 -3.697,2.321 -3.239,-0.482 -5.51,-2.51 -7.406,-4.891 -1.828,-2.296 -3.4,-4.811 -4.937,-7.321 -1.891,-3.088 -3.493,-6.359 -5.471,-9.387 -2.025,-3.099 -5.589,-3.306 -7.585,-0.597 -0.596,0.809 -0.879,1.848 -1.265,2.694 -1.416,-1.33 -2.802,-2.895 -4.441,-4.121 -4.187,-3.135 -7.991,-1.076 -8.889,4.128 -0.051,0.297 -0.095,0.595 -0.186,1.17 -0.394,-0.506 -0.634,-0.799 -0.858,-1.104 -2.349,-3.197 -4.852,-6.267 -8.015,-8.693 -1.145,-0.879 -2.459,-1.73 -3.828,-2.085 -3.448,-0.893 -6.178,1.21 -6.806,4.891 -0.48,2.812 -0.061,5.56 0.433,8.312 0.033,0.185 0.046,0.373 0.077,0.63 -5.822,-4.337 -11.229,-9.347 -19.156,-8.932 0.593,-4.471 0.453,-8.895 -0.082,-13.3 -0.789,-6.493 -2.321,-12.831 -4.571,-18.964 -2.406,-6.557 -5.391,-12.853 -9.556,-18.505 -0.888,-1.205 -2.015,-2.298 -3.218,-3.192 -3.124,-2.324 -6.527,-1.217 -7.798,2.455 -0.85,2.458 -0.856,5.013 -0.709,7.572 0.529,9.179 3.071,17.9 6.084,26.507 2.29,6.541 4.572,13.09 8.323,18.993 0.103,0.163 0.161,0.355 0.204,0.454 -2.563,-0.313 -5.127,-0.627 -7.69,-0.94 0.485,1.171 0.971,2.343 1.456,3.515" /></g><g
           transform="translate(3.4021,120.9101)"
           id="g24"><path
             id="path26"
             style="fill:#29e7d0;fill-opacity:1;fill-rule:nonzero;stroke:none"
             d="m 0,0 c 1.649,0 2.931,-0.078 4.197,0.032 0.655,0.057 1.404,0.298 1.902,0.709 3.171,2.62 6.284,5.31 9.416,7.977 1.015,0.865 2.031,1.728 3.308,2.814 -1.502,0 -2.647,-0.053 -3.784,0.016 C 14.023,11.61 13.214,11.376 12.453,10.643 11.334,9.565 10.096,8.609 8.91,7.599 6.032,5.146 3.156,2.692 0,0 m 18.684,13.995 c -0.248,0.284 -0.359,0.435 -0.493,0.562 -4.128,3.898 -8.258,7.795 -12.391,11.689 -0.171,0.162 -0.369,0.415 -0.559,0.419 -1.712,0.033 -3.425,0.019 -5.363,0.019 4.456,-4.211 8.694,-8.224 12.949,-12.22 0.241,-0.227 0.608,-0.44 0.923,-0.449 1.579,-0.045 3.161,-0.02 4.934,-0.02 M 7.979,0.001 c 2.127,0 3.885,-0.052 5.637,0.029 0.578,0.027 1.248,0.265 1.693,0.631 2.56,2.103 5.068,4.272 7.588,6.423 1.771,1.511 3.535,3.031 5.555,4.764 -1.896,0 -3.445,-0.071 -4.985,0.023 -1.17,0.072 -2.042,-0.296 -2.885,-1.089 C 19.304,9.579 17.92,8.49 16.584,7.349 13.801,4.975 11.02,2.598 7.979,0.001 m 18.442,0 c 2.157,0 3.951,-0.046 5.741,0.027 0.542,0.022 1.173,0.251 1.588,0.596 3.161,2.63 6.279,5.312 9.408,7.981 1.135,0.968 2.262,1.944 3.648,3.137 -3.63,0.037 -7.074,0.862 -9.465,-2.437 C 37.228,9.149 37.037,9.049 36.885,8.92 33.49,6.026 30.095,3.132 26.421,0.001 m 10.393,14.672 c -0.291,0.196 -0.618,0.358 -0.874,0.597 -3.383,3.168 -6.841,6.263 -10.092,9.562 -1.445,1.465 -2.899,2.171 -4.93,1.927 -1.185,-0.143 -2.401,-0.026 -3.917,-0.026 4.728,-4.462 9.17,-8.658 13.623,-12.844 0.189,-0.177 0.482,-0.37 0.714,-0.356 1.793,0.107 3.735,-0.578 5.476,1.14 M -3.162,28.13 c 0.662,0.08 1.322,0.218 1.985,0.23 1.718,0.033 3.436,0.032 5.154,0.003 0.965,-0.016 1.976,0.252 2.817,-0.606 0.228,-0.232 0.841,-0.105 1.277,-0.108 1.319,-0.01 2.638,-0.031 3.955,0.006 0.831,0.024 1.757,-0.307 2.406,0.614 0.117,0.167 0.603,0.098 0.918,0.099 2.757,0.006 5.514,0.003 8.271,0.003 0.199,0 0.446,0.071 0.592,-0.02 2.215,-1.371 4.654,-0.592 6.979,-0.647 1.552,-0.037 2.652,-0.447 3.767,-1.537 3.97,-3.878 8.051,-7.642 12.151,-11.506 1.686,1.263 3.549,1.782 5.606,1.212 0.607,-0.168 1.318,-0.348 1.723,-0.77 0.832,-0.866 1.797,-0.863 2.847,-0.861 6.232,0.013 12.464,-0.001 18.697,-0.006 2.41,-0.006 4.821,-0.013 7.232,-0.019 1.277,-0.003 2.554,-0.003 3.831,-0.008 7.141,-0.023 14.283,-0.048 21.424,-0.073 -0.44,-1.395 -0.881,-2.79 -1.321,-4.186 -8.919,0.051 -17.838,0.102 -26.756,0.153 -2.404,0.005 -4.809,0.01 -7.213,0.015 -5.99,0.08 -11.98,0.172 -17.97,0.219 -0.574,0.004 -1.166,-0.222 -1.721,-0.422 -1.61,-0.581 -3.227,-0.637 -4.782,0.069 -0.714,0.324 -1.13,0.175 -1.674,-0.292 -4.149,-3.566 -8.31,-7.119 -12.508,-10.627 -0.467,-0.39 -1.185,-0.645 -1.797,-0.666 -2.315,-0.076 -4.634,-0.066 -6.95,-0.013 -0.932,0.021 -1.997,-0.399 -2.742,0.631 -0.104,0.143 -0.531,0.068 -0.808,0.069 -1.358,0.005 -2.717,0.017 -4.075,-0.002 -0.974,-0.014 -1.992,0.217 -2.827,-0.599 -0.177,-0.173 -0.609,-0.112 -0.923,-0.112 -5.433,-0.006 -10.866,-0.01 -16.299,0.006 -0.423,10e-4 -0.844,0.15 -1.266,0.231 0,0.32 0,0.64 0,0.96 5.115,4.341 10.23,8.683 15.437,13.101 -5.19,4.875 -10.314,9.687 -15.437,14.499 0,0.32 0,0.64 0,0.96" /></g><g
           transform="translate(86.6176,135.1266)"
           id="g28"><path
             id="path30"
             style="fill:#04c5fe;fill-opacity:1;fill-rule:nonzero;stroke:none"
             d="m 0,0 c -2.411,0.007 -4.822,0.013 -7.233,0.02 3.655,5.524 7.256,11.084 10.978,16.562 4.844,7.131 9.774,14.205 14.686,21.29 3.868,5.578 7.748,11.146 11.653,16.697 3.676,5.225 7.307,10.484 11.116,15.611 3.355,4.516 6.912,8.881 10.42,13.282 0.513,0.644 1.233,1.128 1.879,1.66 2.258,1.867 4.636,0.157 4.876,-1.895 0.199,-1.697 0.108,-3.551 -0.374,-5.181 C 56.586,73.265 54.947,68.549 53.329,63.831 51.089,57.3 48.756,50.801 46.523,44.268 43.786,36.261 41.101,28.237 38.414,20.213 36.258,13.779 34.131,7.335 31.999,0.893 31.901,0.598 31.885,0.276 31.831,-0.033 31.318,-1.472 30.805,-2.91 30.291,-4.349 27.099,-14.649 23.802,-24.918 20.741,-35.257 16.489,-49.616 12.176,-63.963 8.323,-78.43 3.407,-96.884 -2.088,-115.164 -7.469,-133.481 c -0.063,-0.214 -0.174,-0.415 -0.499,-0.562 0.431,2.673 0.847,5.349 1.296,8.018 1.752,10.404 3.295,20.849 5.342,31.194 1.565,7.909 3.611,15.734 5.728,23.518 3.573,13.139 7.297,26.237 11.1,39.31 2.555,8.782 5.359,17.49 8.046,26.233 0.152,0.494 0.261,1.002 0.389,1.504 0.441,1.395 0.881,2.79 1.322,4.186 0.14,0.277 0.32,0.542 0.417,0.834 1.848,5.569 3.669,11.147 5.532,16.711 2.623,7.832 5.252,15.662 7.922,23.478 2.488,7.285 5.043,14.546 7.549,21.824 0.908,2.636 1.757,5.291 2.632,7.938 0.03,0.091 0.061,0.182 0.092,0.272 C 49.332,70.925 49.264,70.873 49.196,70.821 48.988,70.586 48.758,70.367 48.575,70.114 45.466,65.811 42.324,61.531 39.266,57.191 33.292,48.712 27.33,40.223 21.429,31.693 15.347,22.903 9.333,14.065 3.314,5.231 2.152,3.526 1.102,1.746 0,0" /></g><g
           transform="translate(76.5823,131.028)"
           id="g32"><path
             id="path34"
             style="fill:#05c6fe;fill-opacity:1;fill-rule:nonzero;stroke:none"
             d="M 0,0 C 2.404,-0.005 4.808,-0.01 7.212,-0.015 2.831,-6.918 -1.42,-13.908 -5.964,-20.701 c -5.687,-8.501 -11.611,-16.844 -17.44,-25.25 -3.552,-5.121 -7.116,-10.233 -10.688,-15.34 -0.258,-0.369 -0.623,-0.662 -0.939,-0.99 -0.086,0.077 -0.172,0.155 -0.258,0.233 1.745,3.29 3.487,6.582 5.235,9.87 3.508,6.597 6.907,13.256 10.561,19.772 3.457,6.164 7.144,12.202 10.802,18.251 2.744,4.536 5.605,9.002 8.408,13.502 C -0.159,-0.454 -0.093,-0.218 0,0" /></g><g
           transform="translate(116.9088,130.778)"
           id="g36"><path
             id="path38"
             style="fill:#29e6d1;fill-opacity:1;fill-rule:nonzero;stroke:none"
             d="M 0,0 C 0.513,1.438 1.027,2.877 1.54,4.315 4.734,4.285 7.928,4.251 11.121,4.226 15.673,4.19 20.227,4.223 24.777,4.109 28.558,4.014 32.335,3.744 36.114,3.564 c 0.676,-0.032 1.355,0 2.032,0.003 C 37.661,2.395 37.176,1.224 36.69,0.052 31.574,0.045 26.459,0.028 21.343,0.033 14.667,0.039 7.99,0.063 1.314,0.073 0.876,0.074 0.438,0.026 0,0" /></g><g
           transform="translate(139.0636,147.5914)"
           id="g40"><path
             id="path42"
             style="fill:#2de8d2;fill-opacity:1;fill-rule:nonzero;stroke:none"
             d="M 0,0 C 2.648,-0.367 5.617,3.079 4.773,5.374 4.593,5.865 3.83,6.272 3.255,6.436 2.921,6.532 2.174,6.169 2.046,5.842 1.304,3.959 0.693,2.025 0,0 m -7.812,-11.893 c 0.123,0.557 0.177,0.982 0.311,1.379 2.109,6.247 4.244,12.484 6.327,18.739 0.318,0.955 0.848,1.359 1.821,1.349 C 2.325,9.559 4.006,9.639 5.683,9.583 8.185,9.498 9.586,7.759 9.1,5.313 8.528,2.436 7.054,0.138 4.482,-1.382 4.284,-1.499 4.102,-1.642 3.832,-1.829 5.184,-3.055 4.8,-4.557 4.614,-6.012 4.4,-7.675 4.129,-9.33 3.914,-10.992 c -0.079,-0.617 -0.321,-0.962 -0.991,-0.906 -0.317,0.026 -0.639,10e-4 -0.959,0.006 -2.597,0.045 -2.226,-0.448 -1.953,2.35 0.093,0.95 0.392,1.877 0.533,2.824 0.111,0.747 0.256,1.532 0.13,2.255 -0.074,0.419 -0.601,0.912 -1.029,1.054 -0.242,0.08 -0.887,-0.412 -1.024,-0.771 -0.738,-1.941 -1.383,-3.919 -2.043,-5.889 -0.61,-1.82 -0.601,-1.823 -2.576,-1.824 -0.551,0 -1.103,0 -1.814,0" /></g><g
           transform="translate(150.5144,141.0783)"
           id="g44"><path
             id="path46"
             style="fill:#2de8d2;fill-opacity:1;fill-rule:nonzero;stroke:none"
             d="m 0,0 c 0.231,-0.446 0.465,-1.527 0.939,-1.646 0.554,-0.139 1.572,0.388 1.944,0.931 1.004,1.466 1.975,3.019 2.586,4.675 0.835,2.262 1.375,4.639 1.915,6.996 0.101,0.443 -0.271,1.298 -0.646,1.465 C 6.332,12.601 5.646,12.249 5.123,12.031 4.852,11.918 4.642,11.615 4.453,11.362 2.006,8.084 0.817,4.313 0,0 M 11.726,11.379 C 10.816,6.135 9.116,0.918 4.95,-3.149 3.63,-4.438 2.027,-5.383 0.104,-5.461 c -2.163,-0.087 -3.582,1.012 -3.915,3.174 -0.179,1.16 -0.149,2.403 0.054,3.562 0.756,4.325 2.426,8.28 5.34,11.604 1.658,1.89 3.571,3.403 6.361,3.267 2.248,-0.11 3.189,-0.787 3.609,-2.995 0.089,-0.467 0.095,-0.949 0.173,-1.772" /></g><g
           transform="translate(135.3983,157.1624)"
           id="g48"><path
             id="path50"
             style="fill:#2ee8d2;fill-opacity:1;fill-rule:nonzero;stroke:none"
             d="m 0,0 c -0.395,-1.149 -0.662,-2.11 -1.069,-3.008 -0.142,-0.312 -0.615,-0.498 -0.968,-0.681 -0.157,-0.082 -0.393,-0.006 -0.592,-0.014 -1.148,-0.051 -2.833,0.34 -3.328,-0.256 -0.926,-1.114 -1.161,-2.802 -1.765,-4.478 h 4.631 c -0.442,-1.265 -0.767,-2.308 -1.19,-3.309 -0.081,-0.191 -0.546,-0.294 -0.839,-0.306 -0.879,-0.038 -1.769,-0.089 -2.637,0.013 -0.834,0.098 -1.236,-0.147 -1.47,-0.965 -0.437,-1.521 -0.975,-3.012 -1.526,-4.685 h 5.13 c -0.397,-1.167 -0.693,-2.189 -1.109,-3.158 -0.12,-0.281 -0.583,-0.583 -0.895,-0.589 -2.672,-0.046 -5.346,-0.026 -8.243,-0.026 0.322,1.07 0.582,2.004 0.883,2.926 1.873,5.738 3.776,11.466 5.615,17.215 0.314,0.982 0.738,1.393 1.831,1.35 C -5.11,-0.065 -2.674,0 0,0" /></g></g></g></g></svg>